<svg width="747" height="738" version="1.1" xmlns="http://www.w3.org/2000/svg" desc="Created with imagetracer.js version 1.2.6" ><path fill="rgb(0,0,0)" stroke="rgb(0,0,0)" stroke-width="1" opacity="0" d="M 0 0 L 747 0 L 747 738 L 0 738 L 0 0 Z M 381 139 L 368 145 Q 359 151 356 163 L 356 572 L 362 584 L 372 592 L 385 596 L 399 594 L 409 588 Q 416 581 419 570 L 419 166 L 413 152 Q 408 144 398 140 Q 391 138 381 139 Z M 278 235 L 270 237 L 263 241 Q 253 248 250 262 L 250 477 L 255 489 Q 262 498 275 502 L 289 502 L 300 497 Q 310 490 313 476 L 313 263 Q 311 252 305 246 Q 297 235 278 235 Z M 486 260 L 475 263 L 470 266 Q 460 273 457 286 L 457 452 L 460 460 L 466 468 L 476 474 L 483 476 Q 500 477 509 469 Q 517 462 520 449 L 520 288 L 514 274 Q 506 260 486 260 Z M 170 290 L 157 296 Q 146 303 144 318 L 144 421 L 149 435 Q 156 444 169 448 L 183 448 L 193 444 L 198 440 L 204 432 L 207 424 L 207 316 L 202 304 Q 196 295 186 291 L 170 290 Z M 582 313 L 570 318 Q 559 325 556 339 L 556 405 L 561 417 Q 567 427 581 430 L 595 430 L 606 425 Q 615 418 619 405 L 619 339 L 614 327 Q 608 318 598 314 L 582 313 Z M 71 341 L 61 343 L 54 347 Q 45 353 42 364 Q 40 380 47 388 Q 53 397 67 400 Q 83 401 91 394 Q 100 387 102 374 L 101 363 L 94 351 L 83 343 L 71 341 Z M 675 342 L 664 347 Q 655 353 652 365 Q 650 381 657 388 Q 663 397 677 400 L 687 400 L 699 395 Q 708 388 711 376 Q 712 359 704 352 Q 698 345 689 342 L 675 342 Z " /><path fill="rgb(251,251,252)" stroke="rgb(251,251,252)" stroke-width="1" opacity="0.996078431372549" d="M 380.5 140 Q 383.1 139.2 382 142.5 L 377.5 150 Q 375.3 147 370 148 Q 371.1 150.7 368.5 150 L 367 153 Q 363.3 151.7 365 157.5 L 366 160.5 L 361.5 164 L 359 163 L 360 166.5 L 361 185.5 L 360 186.5 L 360 551.5 L 361 553.5 L 360 554.5 L 360 567.5 L 358.5 570 L 358 568 L 356 567.5 L 356 166 Q 359 167.3 358 163.5 L 357 161.5 L 358 161.5 L 358.5 163 L 359 160.5 L 359 158.5 L 359 156.5 L 366.5 147 L 380.5 140 Z " /><path fill="rgb(251,251,252)" stroke="rgb(251,251,252)" stroke-width="1" opacity="0.996078431372549" d="M 384 140 Q 398.2 138.6 405 145.5 L 405.5 147 L 406.5 146 L 412 151.5 L 418 164.5 L 418 570.5 Q 414.7 582.7 405.5 589 L 398.5 593 L 384.5 595 L 378 592.5 L 379.5 590 L 387.5 591 Q 390 589.8 389 586 L 401.5 587 L 408 581.5 L 410 578.5 L 409 576.5 L 413 573.5 L 414 561.5 L 411 557.5 L 411 553.5 L 414 548.5 L 414 533.5 Q 411.7 532.3 413 527.5 L 414 525.5 L 413 522.5 L 414 520.5 L 413 517.5 L 414 516.5 L 414 503.5 L 413 498.5 L 414 497.5 L 414 483.5 L 413 478.5 L 414 476.5 L 413 471.5 L 414 468.5 L 413 465.5 L 414 463.5 L 413 458.5 Q 415.5 457 414 451.5 L 413 448.5 L 414 447.5 L 414 439.5 L 413 434.5 Q 415.8 432.8 414 426.5 Q 411.3 424.7 413 418.5 L 414 417.5 L 414 404.5 L 413 401.5 L 414 399.5 L 413 396.5 L 414 392.5 L 413 389.5 L 414 388.5 L 414.5 377 L 415.5 426 L 416 298.5 L 415 298.5 L 414.5 372 L 413 363.5 L 414 358.5 L 413 356.5 Q 415.3 355.3 414 350.5 Q 411.7 349.2 413 344.5 L 414 343.5 L 414 316.5 L 413 313.5 L 413 311.5 L 414 307.5 L 413 303.5 L 414 299.5 L 414 297.5 L 414 278.5 L 413 275.5 L 414 274.5 L 414 260.5 L 413 257.5 L 414 252.5 L 413 249.5 L 414 248.5 L 414 240.5 L 413 235.5 L 414 233.5 L 413 230.5 L 414 228.5 L 413 225.5 L 414 221.5 L 414 219.5 L 414 194.5 L 412 190.5 L 411 180.5 Q 415.1 177.6 414 169.5 Q 411.5 168 413 162.5 L 411.5 161 L 408 159.5 L 410 155.5 L 405.5 150 L 400 146.5 L 399.5 145 L 398 149 L 394 149 Q 395 146 392 147 L 392 143 L 390.5 143 L 384 142 L 384 140 Z M 416 166 L 415 174 L 416 174 L 416 166 Z M 416 189 L 415 210 L 416 210 L 416 189 Z M 416 217 L 415 294 L 416 294 L 416 217 Z M 416 434 L 415 454 L 416 454 L 416 434 Z M 416 467 L 415 495 L 416 495 L 416 467 Z M 416 497 L 415 510 L 416 510 L 416 497 Z M 416 517 L 415 523 L 416 523 L 416 517 Z M 416 525 L 415 548 L 416 548 L 416 525 Z M 416 564 L 415 569 L 416 569 L 416 564 Z " /><path fill="rgb(251,251,252)" stroke="rgb(251,251,252)" stroke-width="1" opacity="0.996078431372549" d="M 276.5 236 L 286.5 236 L 287 237.5 L 288.5 237 Q 299 239.5 305 246.5 Q 310.1 250.9 311 259.5 L 310 263.5 L 311 263.5 L 311.5 261 L 312 476.5 Q 309 489.5 299.5 496 L 288.5 501 L 279.5 501 L 277.5 501 Q 269.3 500.7 265 496.5 L 264.5 495 L 263.5 496 L 256 488.5 L 253 482.5 L 254 480.5 L 252 480.5 L 253 476.5 L 252 476.5 L 251.5 478 L 251 475.5 L 252 474.5 L 252 262.5 L 251 260.5 L 253 260.5 L 252 256.5 L 254 256.5 L 253 254.5 L 256.5 249 L 258 248.5 L 257 247.5 L 262.5 242 L 264.5 243 L 265.5 240 L 276.5 236 Z M 279 237 L 279 238 L 286 238 L 279 237 Z M 282 241 L 282 245 L 277 244 L 277 246 L 271 244 L 271 242 L 266 243 L 266 245 L 264 246 Q 261 245 262 248 L 259 249 Q 258 255 261 258 L 254 260 L 255 264 L 255 475 L 254 476 L 254 478 L 259 478 L 260 480 L 262 479 L 261 483 L 258 484 L 261 490 L 269 494 L 267 492 L 272 490 L 271 492 Q 270 494 274 493 L 273 495 L 274 497 L 285 497 L 287 493 L 292 492 Q 294 491 293 494 L 297 495 L 299 492 Q 301 493 300 490 L 302 490 L 302 489 L 305 487 L 303 482 L 305 479 L 307 480 L 308 474 L 306 464 L 308 455 L 307 424 L 307 422 Q 306 417 308 416 L 307 415 L 307 407 L 307 405 L 308 401 L 307 397 L 307 395 L 307 387 L 308 386 L 307 383 L 307 375 L 308 374 L 307 371 L 307 358 L 308 357 L 308 345 L 307 344 L 308 340 L 307 337 L 307 327 L 308 326 L 307 324 Q 306 319 308 318 L 307 315 L 308 311 L 308 301 L 307 300 L 307 290 L 308 289 L 307 285 L 307 275 L 308 274 L 308 265 L 307 264 Q 308 259 305 260 L 304 258 L 305 251 L 302 250 Q 303 247 300 248 L 300 246 L 299 246 L 297 243 L 295 244 Q 290 245 290 241 L 282 241 Z M 311 473 L 310 477 L 311 477 L 311 473 Z " /><path fill="rgb(251,251,252)" stroke="rgb(251,251,252)" stroke-width="1" opacity="0.996078431372549" d="M 484.5 261 L 491.5 261 L 499.5 263 Q 508.5 267 514 274.5 L 518 285.5 L 514.5 287 L 513 284 L 508.5 285 L 508 281.5 L 510 276.5 L 504.5 270 L 503 270 Q 504.5 266.3 501.5 267 L 496 270 L 495 267.5 L 495.5 266 L 493.5 267 L 492.5 266 L 482 266 L 479.5 270 L 473.5 266 L 473 270 L 468 273.5 Q 468.8 275.8 466.5 275 Q 464.3 275.8 465 279.5 L 466 282.5 L 461.5 289 L 460 288.5 L 460 449.5 L 463 450 L 463 451.5 L 464 454 L 469 453 L 466 460.5 L 473 466.5 Q 472.2 469.1 475.5 468 Q 476.6 470.8 480 470 Q 479 467 482 468 Q 480.7 471.3 485.5 470 L 488.5 471 Q 491.7 469.7 491.5 465 L 495 466 L 496.5 470 L 499 470 Q 497.9 472.7 500.5 472 L 500 470.5 Q 498.8 466.8 502.5 468 L 506 466 L 506 464 Q 508.7 465.1 508 462.5 L 511 459.5 L 510 458.5 Q 510.5 451 515.5 448 Q 517.8 447.3 517 449.5 L 518 453.5 Q 515.2 462.7 508.5 468 Q 500.3 476.3 482.5 475 L 472 470.5 L 471.5 469 Q 469.8 471.7 468 467.5 Q 468.8 465.3 466.5 466 Q 461.1 461.9 459 454.5 L 460 451.5 L 458 451.5 L 459 449.5 L 459 286.5 L 458 284.5 L 459 284.5 L 459.5 286 L 460 283.5 L 459 281 L 461 280.5 L 461 278.5 Q 463.1 270.6 469.5 267 Q 475.5 262.5 484.5 261 Z " /><path fill="rgb(251,251,252)" stroke="rgb(251,251,252)" stroke-width="1" opacity="0.996078431372549" d="M 258.5 271 L 261 272 Q 262.1 274.7 259.5 274 L 258.5 271 Z " /><path fill="rgb(251,251,252)" stroke="rgb(251,251,252)" stroke-width="1" opacity="0.996078431372549" d="M 518.5 287 L 519 448.5 L 518 448.5 L 518.5 287 Z " /><path fill="rgb(251,251,252)" stroke="rgb(251,251,252)" stroke-width="1" opacity="0.996078431372549" d="M 169.5 291 L 185.5 292 Q 195.5 295.5 201 303.5 L 206 314.5 L 206 424.5 Q 202.6 436.1 193.5 442 L 182.5 447 L 168.5 447 Q 156.3 443.7 150 434.5 L 150 432 Q 147.3 433.1 148 430.5 L 145 422.5 Q 147.2 421.2 146 416.5 L 145 415.5 L 145 407.5 L 146 406.5 L 146 382.5 L 145 380.5 L 146 379.5 L 146 343.5 Q 143.3 341.8 145 335.5 L 146 334.5 L 146 317.5 L 145 315.5 Q 148.5 314 146 312.5 Q 149.1 302.6 156.5 297 L 169.5 291 Z M 170 295 L 168 297 Q 169 300 167 299 L 165 299 L 161 300 L 158 299 L 152 308 L 153 311 L 152 314 L 149 315 L 149 325 L 149 327 L 150 330 L 149 332 L 149 417 L 151 418 L 153 417 L 155 421 L 154 423 L 151 424 Q 150 431 154 434 L 153 436 L 162 434 L 163 438 L 162 440 L 167 443 L 180 443 L 179 441 L 181 438 Q 188 437 187 440 L 194 438 Q 193 435 196 436 Q 198 435 197 430 Q 198 426 202 427 L 202 316 L 201 314 L 197 316 L 200 309 L 194 301 Q 189 300 188 302 L 190 299 Q 185 299 184 297 L 184 295 L 170 295 Z M 154 301 L 152 303 L 154 304 L 154 301 Z " /><path fill="rgb(251,251,252)" stroke="rgb(251,251,252)" stroke-width="1" opacity="0.996078431372549" d="M 469.5 298 L 470 299.5 L 468 300.5 L 469.5 298 Z " /><path fill="rgb(251,251,252)" stroke="rgb(251,251,252)" stroke-width="1" opacity="0.996078431372549" d="M 516.5 299 L 517 311.5 L 516 311.5 L 516 309 Q 512.2 310.5 513 307.5 L 516.5 299 Z " /><path fill="rgb(251,251,252)" stroke="rgb(251,251,252)" stroke-width="1" opacity="0.996078431372549" d="M 581.5 314 L 597.5 315 Q 607.2 318.8 613 326.5 L 618 337.5 L 618 405.5 Q 614.7 417.7 605.5 424 L 594.5 429 L 580.5 429 Q 568.3 425.7 562 416.5 L 560 413.5 L 560.5 412 L 559 411.5 L 559.5 410 L 558 409.5 L 559 407 Q 556.3 408.1 557 405.5 L 558 404.5 L 558 395.5 L 557 394.5 L 557 384.5 L 557 382.5 L 558 378.5 L 558 357.5 L 557 356.5 L 557 343.5 L 558 338.5 Q 555.5 337 559 335.5 L 558 333.5 L 560 332.5 L 560 330.5 L 568.5 320 L 579.5 315 L 582.5 316 L 582.5 315 L 581.5 314 Z M 584 316 L 583 317 Q 580 316 581 319 L 577 320 L 575 320 L 575 324 L 573 323 L 566 328 Q 567 330 565 329 Q 562 330 564 332 L 564 336 L 560 334 L 561 337 L 561 348 L 562 349 Q 564 355 561 357 L 561 407 L 560 409 L 563 408 L 564 414 L 569 416 L 570 420 L 573 421 L 575 426 L 575 424 Q 580 423 583 426 L 587 420 L 594 421 L 599 424 Q 603 425 601 421 L 604 421 L 604 418 Q 607 419 606 416 L 611 414 L 613 407 L 610 406 L 614 393 L 614 354 L 613 353 Q 612 348 614 347 L 614 339 L 613 338 Q 614 334 610 336 L 611 334 L 611 331 L 606 324 L 602 325 L 599 319 Q 593 321 594 317 L 584 316 Z " /><path fill="rgb(251,251,252)" stroke="rgb(251,251,252)" stroke-width="1" opacity="0.996078431372549" d="M 516.5 319 L 517 321.5 L 516 321.5 L 516.5 319 Z " /><path fill="rgb(251,251,252)" stroke="rgb(251,251,252)" stroke-width="1" opacity="0.996078431372549" d="M 516.5 333 L 517 337.5 L 516 337.5 L 516.5 333 Z " /><path fill="rgb(251,251,252)" stroke="rgb(251,251,252)" stroke-width="1" opacity="0.996078431372549" d="M 516.5 340 L 517 342.5 L 516 342.5 L 516.5 340 Z " /><path fill="rgb(251,251,252)" stroke="rgb(251,251,252)" stroke-width="1" opacity="0.996078431372549" d="M 69.5 342 L 80 343 L 80.5 345 L 82.5 344 Q 90.9 347.6 96 354.5 Q 101.5 361 101 373.5 Q 99 386.5 90.5 393 Q 85.2 398.3 75.5 399 L 74 396 Q 70.3 394.5 71 397.5 Q 70.3 399.8 66.5 399 Q 53.9 396.6 48 387.5 L 44 379.5 L 45 376.5 L 44 376.5 L 43.5 378 L 43 376.5 L 44 375.5 L 44 365.5 L 43 363.5 L 44 363.5 L 44.5 365 L 45 362.5 L 44 360.5 L 46 360.5 L 45 358.5 L 47 357.5 Q 44.8 356.3 47.5 355 L 49 354.5 L 48 353.5 L 52.5 349 L 62.5 344 L 64.5 345 L 64.5 343 L 69.5 342 Z M 63 346 L 63 348 L 64 351 L 56 351 L 51 355 L 51 357 L 50 362 L 50 364 L 51 372 L 54 374 L 50 381 L 51 387 L 55 389 Q 58 388 56 392 L 60 392 Q 61 395 63 393 Q 68 392 70 395 Q 76 396 78 393 Q 80 394 79 391 L 82 391 L 83 393 L 86 392 L 90 387 L 94 384 Q 92 379 96 380 Q 98 379 96 378 Q 95 373 97 372 L 96 364 L 95 366 L 93 364 L 94 362 L 94 357 L 92 357 Q 93 353 91 354 L 89 351 L 82 349 L 80 346 L 78 347 L 69 347 L 63 346 Z M 46 365 L 47 377 Q 50 374 49 367 L 46 365 Z M 100 366 L 99 372 L 100 372 L 100 366 Z " /><path fill="rgb(251,251,252)" stroke="rgb(251,251,252)" stroke-width="1" opacity="0.996078431372549" d="M 674.5 343 Q 685.2 341.2 691.5 344 Q 700.9 347.6 706 355.5 L 710 365.5 L 710 375.5 Q 707 387.5 698.5 394 Q 693.1 398.6 683.5 399 L 680.5 398 L 676.5 399 Q 664.2 396.3 658 387.5 L 658.5 386 L 656 384.5 L 654 379.5 L 655 377.5 L 653 377.5 Q 655.5 374 654 366.5 L 653 364.5 L 655 364.5 L 654 361.5 L 656 360.5 L 655 358.5 L 662.5 349 L 672.5 344 L 674 347.5 L 673 351 L 665.5 351 L 664 352.5 Q 664.8 354.8 662.5 354 Q 659.4 355.4 660 360.5 L 662 362.5 L 662 372 Q 665.7 370.8 664 376 L 662 376 L 662 379 Q 659 377.8 660 381.5 L 659 384 Q 661.7 382.9 661 385.5 L 664 387 Q 662.9 389.7 665.5 389 L 670.5 392 L 677 391 Q 675.9 393.7 678.5 393 L 682.5 395 L 689 392.5 L 690.5 390 L 691.5 392 L 694.5 391 L 696.5 394 L 697 389 L 702 385.5 L 701 382 Q 704.8 383.5 704 380.5 L 705 375 L 709 376 Q 709.8 372.6 707 371.5 L 707 366 Q 702.9 367.7 704 363.5 L 704 361.5 L 705 359.5 L 702 357.5 L 697.5 352 Q 691.4 353.3 692 350.5 L 688.5 347 L 676.5 347 L 675 345.5 L 674.5 343 Z M 709 365 L 708 368 L 709 368 L 709 365 Z M 658 369 L 658 374 L 658 372 Q 660 370 658 369 Z " /><path fill="rgb(251,251,252)" stroke="rgb(251,251,252)" stroke-width="1" opacity="0.996078431372549" d="M 516.5 345 L 517 349.5 L 516 349.5 L 516.5 345 Z " /><path fill="rgb(251,251,252)" stroke="rgb(251,251,252)" stroke-width="1" opacity="0.996078431372549" d="M 516.5 363 L 517 402.5 L 516 402.5 L 516.5 363 Z " /><path fill="rgb(251,251,252)" stroke="rgb(251,251,252)" stroke-width="1" opacity="0.996078431372549" d="M 516.5 404 L 517 422.5 L 516 422.5 L 516.5 404 Z " /><path fill="rgb(251,251,252)" stroke="rgb(251,251,252)" stroke-width="1" opacity="0.996078431372549" d="M 516.5 432 L 517 441.5 L 513 443 L 516.5 432 Z " /><path fill="rgb(251,251,252)" stroke="rgb(251,251,252)" stroke-width="1" opacity="0.996078431372549" d="M 257.5 462 Q 261.3 461 260 464 L 257.5 462 Z " /><path fill="rgb(251,251,252)" stroke="rgb(251,251,252)" stroke-width="1" opacity="0.996078431372549" d="M 365.5 566 L 370 568.5 L 366 576 L 364 576.5 L 365 581 L 367 581 L 369 585 L 372.5 585 L 377.5 584 L 379 586.5 L 376.5 593 L 369 588.5 L 368.5 587 L 367.5 588 L 362 582.5 L 358 574.5 L 361.5 570 L 365 567.5 L 365.5 566 Z M 366 584 L 367 586 Q 368 583 366 584 Z " /><path fill="rgb(254,254,254)" stroke="rgb(254,254,254)" stroke-width="1" opacity="1" d="M 382 140 Q 385.1 139.3 384.5 142 L 389.5 142 L 392 143 L 392 147 Q 395 146 394 149 L 398 149 L 399.5 145 L 401.5 148 L 408 152.5 L 410 156.5 L 408 159.5 L 413 162.5 L 414 175.5 Q 410.3 177.8 411 184.5 L 414 194.5 L 414 219.5 L 414 221.5 L 413 227.5 L 414 229.5 L 413 232.5 L 414 234.5 L 413 239.5 L 414 240.5 L 414 248.5 L 413 251.5 L 414 256.5 L 413 259.5 L 414 260.5 L 414 274.5 L 413 277.5 L 414 278.5 L 414 297.5 L 414 299.5 L 413 306.5 L 414 308.5 L 413 311.5 L 413 313.5 L 414 316.5 L 414 343.5 Q 411.7 344.8 413 349.5 Q 415.3 350.7 414 355.5 L 413 357.5 L 414 362.5 L 413 367.5 L 414.5 372 L 415.5 298 L 416 425.5 L 415 425.5 L 414.5 377 L 413 391.5 L 414 395.5 L 413 398.5 L 414 400.5 L 413 403.5 L 414 404.5 L 414 417.5 Q 411.3 419.3 413 425.5 Q 415.8 427.2 414 433.5 L 413 438.5 L 414 439.5 L 414 447.5 L 413 450.5 Q 415.5 452 414 457.5 L 413 462.5 L 414 464.5 L 413 467.5 L 414 470.5 L 413 475.5 L 414 477.5 L 413 482.5 L 414 483.5 L 414 497.5 L 413 502.5 L 414 503.5 L 414 516.5 L 413 519.5 L 414 521.5 L 413 524.5 L 414 526.5 Q 411.7 527.7 413 532.5 L 414 533.5 L 414 548.5 Q 410.3 550.8 411 557.5 Q 415.1 559.4 414 566.5 Q 411.5 568 413 573.5 L 411.5 575 L 409 576.5 L 410 578.5 L 403.5 586 L 394.5 587 L 389 586 Q 390 589.8 387.5 591 L 379.5 590 L 377.5 593 L 377 589.5 L 379 585.5 Q 378 583 373.5 584 L 369 585 L 369 583 L 365 581 L 365 577.5 L 364.5 576 Q 366.8 576.8 366 574.5 L 370 568.5 L 365.5 566 L 362.5 570 L 359 572.5 L 358.5 574 L 357 568.5 L 358 568.5 L 358.5 570 L 360 567.5 L 360 554.5 L 361 552.5 L 360 551.5 L 360 186.5 L 361 185.5 L 361 176.5 L 360 175.5 L 360 166.5 L 358.5 163 L 357.5 166 L 357 163.5 L 358.5 160 L 359 163 L 362.5 164 Q 366.5 163.5 366 158.5 L 365 153 Q 367.7 154.1 367 151.5 L 370 150 Q 368.6 146.3 374.5 148 L 377.5 150 L 382 142.5 L 382 140 Z " /><path fill="rgb(254,254,254)" stroke="rgb(254,254,254)" stroke-width="1" opacity="1" d="M 405.5 146 L 404.5 148 L 405.5 146 Z " /><path fill="rgb(254,254,254)" stroke="rgb(254,254,254)" stroke-width="1" opacity="1" d="M 415.5 166 L 416 173.5 L 415 173.5 L 415.5 166 Z " /><path fill="rgb(254,254,254)" stroke="rgb(254,254,254)" stroke-width="1" opacity="1" d="M 415.5 189 L 416 209.5 L 415 209.5 L 415.5 189 Z " /><path fill="rgb(254,254,254)" stroke="rgb(254,254,254)" stroke-width="1" opacity="1" d="M 415.5 217 L 416 293.5 L 415 293.5 L 415.5 217 Z " /><path fill="rgb(254,254,254)" stroke="rgb(254,254,254)" stroke-width="1" opacity="1" d="M 278.5 237 L 286 237.5 L 278.5 238 L 278.5 237 Z " /><path fill="rgb(254,254,254)" stroke="rgb(254,254,254)" stroke-width="1" opacity="1" d="M 265.5 241 L 265.5 243 L 270.5 242 L 271 244 L 276.5 246 L 276.5 244 L 282 245 L 282 241 L 289.5 241 Q 290 244.5 294.5 244 L 297 243 L 298.5 246 L 300 246 L 300 248 Q 302.7 246.9 302 249.5 L 305 251 L 304 257.5 L 305 260 Q 308.3 258.7 307 263.5 L 308 264.5 L 308 273.5 L 307 274.5 L 307 284.5 L 308 288.5 L 307 289.5 L 307 299.5 L 308 300.5 L 308 310.5 L 307 314.5 L 308 317.5 Q 305.8 318.8 307 323.5 L 308 325.5 L 307 326.5 L 307 336.5 L 308 339.5 L 307 343.5 L 308 344.5 L 308 356.5 L 307 357.5 L 307 370.5 L 308 373.5 L 307 374.5 L 307 382.5 L 308 385.5 L 307 386.5 L 307 394.5 L 307 396.5 L 308 400.5 L 307 404.5 L 307 406.5 L 307 414.5 L 308 415.5 Q 305.8 416.8 307 421.5 L 307 423.5 L 308 454.5 L 306 463.5 L 308 473.5 L 307 480 L 304.5 479 L 303 481.5 L 305 487 L 302 488.5 L 302 490 L 300 490 Q 301.1 492.7 298.5 492 L 296.5 495 L 293 494 Q 294.1 491.3 291.5 492 L 287 493 L 284.5 497 L 273.5 497 L 273 494.5 L 273.5 493 Q 270.2 494.1 271 491.5 L 271.5 490 L 267 491.5 L 268.5 494 L 261 490 L 258 483.5 L 261 483 L 262 479 L 259.5 480 L 259 478 L 254 478 L 254 475.5 L 255 474.5 L 255 263.5 L 254 260 L 261 257.5 Q 257.8 255 259 249 L 262 247.5 Q 261.3 245.3 263.5 246 L 266 244.5 L 263 242.5 L 265.5 241 Z M 259 271 L 260 274 Q 262 275 261 272 L 259 271 Z M 258 462 L 260 464 Q 261 461 258 462 Z " /><path fill="rgb(254,254,254)" stroke="rgb(254,254,254)" stroke-width="1" opacity="1" d="M 252.5 258 L 253 260.5 L 252 260.5 L 252.5 258 Z " /><path fill="rgb(254,254,254)" stroke="rgb(254,254,254)" stroke-width="1" opacity="1" d="M 310.5 260 L 311 263.5 L 310 263.5 L 310.5 260 Z " /><path fill="rgb(254,254,254)" stroke="rgb(254,254,254)" stroke-width="1" opacity="1" d="M 251.5 262 L 252 474.5 L 251 474.5 L 251.5 262 Z " /><path fill="rgb(254,254,254)" stroke="rgb(254,254,254)" stroke-width="1" opacity="1" d="M 473.5 266 L 479.5 270 L 482 266 L 492.5 266 L 493.5 267 L 495.5 266 L 496 268.5 Q 495.3 270.8 497.5 270 L 503 267 Q 501.5 270.7 504.5 270 L 510 277.5 L 509 280.5 L 509.5 282 L 508 281.5 L 508.5 285 L 513 284 L 514.5 287 L 517.5 286 L 518 449.5 L 517 449.5 Q 517.8 447.3 515.5 448 Q 510.5 451 510 458.5 L 511 459.5 L 508 462.5 L 508 464 L 506 464 Q 507.1 466.7 504.5 466 Q 503.4 468.7 500 468 L 501 471.5 L 499 472 Q 500.3 469 496.5 470 L 495 466 L 491.5 465 Q 491.7 469.7 488.5 471 L 482 470 Q 483 467 480 468 Q 481.3 471 477.5 470 Q 476.4 467.3 473 468 L 471.5 465 L 466 460.5 L 469 453 L 464 454 L 463 450 L 460 449.5 L 460 288.5 L 462 288.5 L 466 280.5 L 465 276.5 L 468 275 L 471.5 270 L 473 270 L 473.5 266 Z M 470 298 L 468 301 L 470 300 L 470 298 Z M 517 299 L 513 308 Q 512 311 516 309 L 516 312 L 517 312 L 517 299 Z M 517 319 L 516 322 L 517 322 L 517 319 Z M 517 333 L 516 338 L 517 338 L 517 333 Z M 517 340 L 516 343 L 517 343 L 517 340 Z M 517 345 L 516 350 L 517 350 L 517 345 Z M 517 363 L 516 403 L 517 403 L 517 363 Z M 517 404 L 516 423 L 517 423 L 517 404 Z M 517 432 L 513 443 L 517 442 L 517 432 Z " /><path fill="rgb(254,254,254)" stroke="rgb(254,254,254)" stroke-width="1" opacity="1" d="M 459.5 283 L 460 285.5 L 459 286.5 L 458.5 450 L 458 286.5 L 459.5 283 Z " /><path fill="rgb(254,254,254)" stroke="rgb(254,254,254)" stroke-width="1" opacity="1" d="M 169.5 295 L 183.5 295 L 184 296.5 Q 185.4 299.1 190 298.5 L 188.5 301 Q 195.8 299.8 197 304.5 L 200 308.5 L 197 316 L 200.5 314 L 202 315.5 L 202 427 Q 198.2 426.3 197 429.5 Q 198.3 434.8 195.5 436 Q 193.3 435.3 194 437.5 L 187 440 Q 188.1 436.5 180.5 438 L 179 440.5 L 180 443 L 166.5 443 L 162 439.5 L 163 437.5 L 161.5 434 L 152.5 436 L 154 433.5 Q 150.1 430.5 151 424 L 154 422.5 L 155 420.5 L 152.5 417 L 150.5 418 L 149 416.5 L 149 331.5 L 150 329.5 L 149 326.5 L 149 324.5 L 149 314.5 L 151.5 314 L 153 310.5 L 152 307.5 L 154 304.5 Q 150.3 302.8 153.5 301 L 154.5 304 Q 157.5 303.5 157 299.5 L 156.5 298 L 160.5 300 L 164.5 299 L 166.5 299 Q 169.1 299.8 168 296.5 L 169.5 295 Z " /><path fill="rgb(254,254,254)" stroke="rgb(254,254,254)" stroke-width="1" opacity="1" d="M 580.5 315 L 585.5 317 L 594 317 Q 592.6 320.7 598.5 319 L 601.5 325 L 605.5 324 L 611 330.5 L 611 333.5 L 610 336 Q 613.8 334.5 613 337.5 L 614 338.5 L 614 346.5 Q 611.8 347.8 613 352.5 L 614 353.5 L 614 392.5 L 610 405.5 L 613 407 L 611 414 L 606 416 Q 607 419 604 418 L 604 421 L 601 421 Q 602.7 425.1 598.5 424 L 593.5 421 L 586.5 420 L 582.5 426 Q 580.3 423 575 424 L 574.5 426 L 572.5 421 L 570 419.5 L 569 416 L 564 414 L 562.5 408 L 560 409 L 561 406.5 L 561 356.5 Q 563.8 354.8 562 348.5 L 561 347.5 L 561 336.5 L 560 334 L 563.5 336 L 564 331.5 Q 561.8 330.3 564.5 329 Q 566.8 329.8 566 327.5 L 572.5 323 L 575 324 L 575 320 L 576.5 320 L 581 319 Q 579.9 316.3 582.5 317 L 582.5 316 Q 579.5 316.5 580.5 315 Z " /><path fill="rgb(254,254,254)" stroke="rgb(254,254,254)" stroke-width="1" opacity="1" d="M 145.5 317 L 146 334.5 L 145 334.5 L 145.5 317 Z " /><path fill="rgb(254,254,254)" stroke="rgb(254,254,254)" stroke-width="1" opacity="1" d="M 557.5 338 L 558 342.5 L 557 342.5 L 557.5 338 Z " /><path fill="rgb(254,254,254)" stroke="rgb(254,254,254)" stroke-width="1" opacity="1" d="M 145.5 343 L 146 379.5 L 145 379.5 L 145.5 343 Z " /><path fill="rgb(254,254,254)" stroke="rgb(254,254,254)" stroke-width="1" opacity="1" d="M 673.5 344 Q 675.8 343.3 675 345.5 L 676.5 347 L 688.5 347 L 692 350.5 Q 691.4 353.3 697.5 352 L 703.5 359 L 705 359.5 L 703 362.5 L 704 366 Q 709.3 364.2 707 371.5 Q 709.8 372.6 709 376 L 705 375 L 704 382 Q 699.9 380.3 701 384.5 L 702 385.5 L 698.5 389 Q 695.1 388.1 697 393.5 L 696 393.5 L 694.5 391 L 691.5 392 L 690.5 390 L 687.5 394 L 681.5 395 L 677 393 Q 678.4 389 671.5 391 L 669.5 392 L 664 389 Q 665.1 386.3 662.5 387 L 661 384 Q 658.3 385.1 659 382.5 L 660 379 L 662 379 Q 660.7 374.9 664 376 L 664 372 L 662 371.5 L 662 362.5 Q 659.3 361.8 660 357.5 L 662.5 354 Q 664.8 354.8 664 352.5 L 665.5 351 L 673 351 L 674 347.5 L 673.5 344 Z " /><path fill="rgb(254,254,254)" stroke="rgb(254,254,254)" stroke-width="1" opacity="1" d="M 63 346 L 68.5 347 L 77.5 347 L 80 346 L 81.5 349 L 89 351 L 90.5 354 Q 93.5 353.2 92 357 L 94 357 L 94 361.5 L 93 363.5 L 94.5 366 L 95.5 364 L 97 371.5 Q 94.7 372.8 96 377.5 Q 98.3 378.8 95.5 380 Q 92.5 379.1 94 383.5 L 90 386.5 L 85.5 392 L 82.5 393 L 82 391 L 79 391 Q 80.1 393.7 77.5 393 Q 75.5 396 69.5 395 Q 68.3 391.8 62.5 393 Q 61 395.5 59.5 392 L 56 392 Q 57.5 388.2 54.5 389 L 51 387 L 50 380.5 L 54 373.5 L 51 372 L 50 363.5 L 50 361.5 L 51 356.5 L 50.5 355 L 55.5 351 L 64 350.5 L 63 347.5 L 63 346 Z " /><path fill="rgb(254,254,254)" stroke="rgb(254,254,254)" stroke-width="1" opacity="1" d="M 49.5 353 L 48.5 355 L 49.5 353 Z " /><path fill="rgb(254,254,254)" stroke="rgb(254,254,254)" stroke-width="1" opacity="1" d="M 557.5 357 L 558 378.5 L 557 378.5 L 557.5 357 Z " /><path fill="rgb(254,254,254)" stroke="rgb(254,254,254)" stroke-width="1" opacity="1" d="M 44.5 362 L 45 364.5 L 44 365.5 L 44 375.5 L 45 378.5 L 44 378.5 Q 41.7 373.7 43 365.5 L 44.5 362 Z " /><path fill="rgb(254,254,254)" stroke="rgb(254,254,254)" stroke-width="1" opacity="1" d="M 654.5 362 L 655 364.5 L 654 364.5 L 654.5 362 Z " /><path fill="rgb(254,254,254)" stroke="rgb(254,254,254)" stroke-width="1" opacity="1" d="M 46 365 L 49 366.5 Q 50.5 374.5 46.5 377 L 46 365 Z " /><path fill="rgb(254,254,254)" stroke="rgb(254,254,254)" stroke-width="1" opacity="1" d="M 708.5 365 L 709 367.5 L 708 367.5 L 708.5 365 Z " /><path fill="rgb(254,254,254)" stroke="rgb(254,254,254)" stroke-width="1" opacity="1" d="M 99.5 366 L 100 371.5 L 99 371.5 L 99.5 366 Z " /><path fill="rgb(254,254,254)" stroke="rgb(254,254,254)" stroke-width="1" opacity="1" d="M 653.5 366 L 654 375.5 L 653 375.5 L 653.5 366 Z " /><path fill="rgb(254,254,254)" stroke="rgb(254,254,254)" stroke-width="1" opacity="1" d="M 657.5 369 Q 660.2 370.2 658 371.5 L 657.5 374 L 657.5 369 Z " /><path fill="rgb(254,254,254)" stroke="rgb(254,254,254)" stroke-width="1" opacity="1" d="M 145.5 382 L 146 406.5 L 145 406.5 L 145.5 382 Z " /><path fill="rgb(254,254,254)" stroke="rgb(254,254,254)" stroke-width="1" opacity="1" d="M 557.5 395 L 558 404.5 L 557 404.5 L 557.5 395 Z " /><path fill="rgb(254,254,254)" stroke="rgb(254,254,254)" stroke-width="1" opacity="1" d="M 71 396 Q 74.8 394.5 74 397.5 L 74.5 399 L 70 398.5 L 71 396 Z " /><path fill="rgb(254,254,254)" stroke="rgb(254,254,254)" stroke-width="1" opacity="1" d="M 680.5 398 L 683 398.5 L 680.5 399 L 680.5 398 Z " /><path fill="rgb(254,254,254)" stroke="rgb(254,254,254)" stroke-width="1" opacity="1" d="M 145.5 416 L 146 421.5 L 145 421.5 L 145.5 416 Z " /><path fill="rgb(254,254,254)" stroke="rgb(254,254,254)" stroke-width="1" opacity="1" d="M 415.5 434 L 416 453.5 L 415 453.5 L 415.5 434 Z " /><path fill="rgb(254,254,254)" stroke="rgb(254,254,254)" stroke-width="1" opacity="1" d="M 459.5 451 L 460 453.5 L 459 453.5 L 459.5 451 Z " /><path fill="rgb(254,254,254)" stroke="rgb(254,254,254)" stroke-width="1" opacity="1" d="M 415.5 467 L 416 494.5 L 415 494.5 L 415.5 467 Z " /><path fill="rgb(254,254,254)" stroke="rgb(254,254,254)" stroke-width="1" opacity="1" d="M 310.5 473 L 311 476.5 L 310 476.5 L 310.5 473 Z " /><path fill="rgb(254,254,254)" stroke="rgb(254,254,254)" stroke-width="1" opacity="1" d="M 252.5 476 L 253 478.5 L 252 478.5 L 252.5 476 Z " /><path fill="rgb(254,254,254)" stroke="rgb(254,254,254)" stroke-width="1" opacity="1" d="M 415.5 497 L 416 509.5 L 415 509.5 L 415.5 497 Z " /><path fill="rgb(254,254,254)" stroke="rgb(254,254,254)" stroke-width="1" opacity="1" d="M 415.5 517 L 416 522.5 L 415 522.5 L 415.5 517 Z " /><path fill="rgb(254,254,254)" stroke="rgb(254,254,254)" stroke-width="1" opacity="1" d="M 415.5 525 L 416 547.5 L 415 547.5 L 415.5 525 Z " /><path fill="rgb(254,254,254)" stroke="rgb(254,254,254)" stroke-width="1" opacity="1" d="M 415.5 564 L 416 568.5 L 415 568.5 L 415.5 564 Z " /><path fill="rgb(254,254,254)" stroke="rgb(254,254,254)" stroke-width="1" opacity="1" d="M 365.5 584 Q 367.8 583.3 367 585.5 L 368.5 588 L 365.5 584 Z " /><path fill="rgb(171,171,171)" stroke="rgb(171,171,171)" stroke-width="1" opacity="0.9254901960784314" d="M 380.5 139 Q 390.8 137.7 397.5 140 Q 407.5 143.5 413 151.5 L 417 159.5 L 416 159.5 Q 413.2 150.8 406.5 146 L 393.5 140 L 380.5 140 Q 369.4 142.9 363 150.5 L 359.5 156 L 360 154.5 L 367.5 145 L 380.5 139 Z " /><path fill="rgb(171,171,171)" stroke="rgb(171,171,171)" stroke-width="1" opacity="0.9254901960784314" d="M 358.5 157 L 359 158.5 L 357.5 161 L 357 159.5 L 358.5 157 Z " /><path fill="rgb(171,171,171)" stroke="rgb(171,171,171)" stroke-width="1" opacity="0.9254901960784314" d="M 417.5 161 L 418 163.5 L 417 163.5 L 417.5 161 Z " /><path fill="rgb(171,171,171)" stroke="rgb(171,171,171)" stroke-width="1" opacity="0.9254901960784314" d="M 356.5 162 L 357 165.5 L 356 165.5 L 356.5 162 Z " /><path fill="rgb(171,171,171)" stroke="rgb(171,171,171)" stroke-width="1" opacity="0.9254901960784314" d="M 418.5 165 L 419 569.5 L 418 569.5 L 418.5 165 Z " /><path fill="rgb(171,171,171)" stroke="rgb(171,171,171)" stroke-width="1" opacity="0.9254901960784314" d="M 277.5 235 L 286 235.5 L 277.5 236 L 277.5 235 Z " /><path fill="rgb(171,171,171)" stroke="rgb(171,171,171)" stroke-width="1" opacity="0.9254901960784314" d="M 272.5 236 L 276 236.5 Q 263.2 238.7 257 247.5 L 252.5 256 L 252 254.5 Q 255.6 246.1 262.5 241 L 272.5 236 Z " /><path fill="rgb(171,171,171)" stroke="rgb(171,171,171)" stroke-width="1" opacity="0.9254901960784314" d="M 287.5 236 L 290 236.5 L 287.5 237 L 287.5 236 Z " /><path fill="rgb(171,171,171)" stroke="rgb(171,171,171)" stroke-width="1" opacity="0.9254901960784314" d="M 291.5 237 Q 300 239.5 305 245.5 L 302.5 244 L 291.5 238 L 291.5 237 Z " /><path fill="rgb(171,171,171)" stroke="rgb(171,171,171)" stroke-width="1" opacity="0.9254901960784314" d="M 305.5 247 L 307.5 250 L 305.5 247 Z " /><path fill="rgb(171,171,171)" stroke="rgb(171,171,171)" stroke-width="1" opacity="0.9254901960784314" d="M 251.5 257 L 252 259.5 L 251 259.5 L 251.5 257 Z " /><path fill="rgb(171,171,171)" stroke="rgb(171,171,171)" stroke-width="1" opacity="0.9254901960784314" d="M 311.5 258 L 312 260.5 L 311 260.5 L 311.5 258 Z " /><path fill="rgb(171,171,171)" stroke="rgb(171,171,171)" stroke-width="1" opacity="0.9254901960784314" d="M 485.5 260 L 491 260.5 L 485.5 261 L 485.5 260 Z " /><path fill="rgb(171,171,171)" stroke="rgb(171,171,171)" stroke-width="1" opacity="0.9254901960784314" d="M 250.5 261 L 251 476.5 L 250 476.5 L 250.5 261 Z " /><path fill="rgb(171,171,171)" stroke="rgb(171,171,171)" stroke-width="1" opacity="0.9254901960784314" d="M 480.5 261 L 484 261.5 Q 469.9 263.4 463.5 273 L 469.5 266 L 480.5 261 Z " /><path fill="rgb(171,171,171)" stroke="rgb(171,171,171)" stroke-width="1" opacity="0.9254901960784314" d="M 492.5 261 L 496 261.5 L 492.5 262 L 492.5 261 Z " /><path fill="rgb(171,171,171)" stroke="rgb(171,171,171)" stroke-width="1" opacity="0.9254901960784314" d="M 312.5 262 L 313 475.5 L 312 475.5 L 312.5 262 Z " /><path fill="rgb(171,171,171)" stroke="rgb(171,171,171)" stroke-width="1" opacity="0.9254901960784314" d="M 500.5 263 Q 509.3 266.3 514 273.5 L 506.5 267 L 500.5 264 L 500.5 263 Z " /><path fill="rgb(171,171,171)" stroke="rgb(171,171,171)" stroke-width="1" opacity="0.9254901960784314" d="M 462.5 274 L 462 275.5 L 459.5 281 L 459 279.5 L 462.5 274 Z " /><path fill="rgb(171,171,171)" stroke="rgb(171,171,171)" stroke-width="1" opacity="0.9254901960784314" d="M 514.5 275 Q 518.8 279.8 520 287.5 L 520 448.5 L 517.5 456 L 517 454.5 L 519 448.5 L 519 287.5 L 514.5 275 Z " /><path fill="rgb(171,171,171)" stroke="rgb(171,171,171)" stroke-width="1" opacity="0.9254901960784314" d="M 457.5 285 L 458 451.5 L 459 454.5 L 458 454.5 L 457 451.5 L 457.5 285 Z " /><path fill="rgb(171,171,171)" stroke="rgb(171,171,171)" stroke-width="1" opacity="0.9254901960784314" d="M 169.5 290 Q 185.9 288.1 193 295.5 L 191.5 295 Q 184.2 289.3 169.5 291 L 166.5 292 L 166.5 291 L 169.5 290 Z " /><path fill="rgb(171,171,171)" stroke="rgb(171,171,171)" stroke-width="1" opacity="0.9254901960784314" d="M 163.5 292 L 165 292.5 Q 156.2 295.7 151 302.5 L 149.5 305 L 150 303.5 L 156.5 296 L 163.5 292 Z " /><path fill="rgb(171,171,171)" stroke="rgb(171,171,171)" stroke-width="1" opacity="0.9254901960784314" d="M 194.5 296 L 203 305.5 L 201 304.5 L 194.5 296 Z " /><path fill="rgb(171,171,171)" stroke="rgb(171,171,171)" stroke-width="1" opacity="0.9254901960784314" d="M 148.5 306 L 148 307.5 L 147.5 309 L 147 307.5 L 148.5 306 Z " /><path fill="rgb(171,171,171)" stroke="rgb(171,171,171)" stroke-width="1" opacity="0.9254901960784314" d="M 145.5 312 L 146 314.5 L 145 314.5 L 145.5 312 Z " /><path fill="rgb(171,171,171)" stroke="rgb(171,171,171)" stroke-width="1" opacity="0.9254901960784314" d="M 581.5 313 L 597.5 314 Q 608.2 317.8 614 326.5 L 615 328.5 L 613 327.5 L 606.5 320 L 593.5 314 L 581.5 314 Q 568.8 317.3 562 326.5 L 560.5 329 L 561 327.5 L 569.5 318 L 581.5 313 Z " /><path fill="rgb(171,171,171)" stroke="rgb(171,171,171)" stroke-width="1" opacity="0.9254901960784314" d="M 206.5 315 L 207 423.5 L 206 423.5 L 206.5 315 Z " /><path fill="rgb(171,171,171)" stroke="rgb(171,171,171)" stroke-width="1" opacity="0.9254901960784314" d="M 144.5 317 L 145 420.5 L 144 420.5 L 144.5 317 Z " /><path fill="rgb(171,171,171)" stroke="rgb(171,171,171)" stroke-width="1" opacity="0.9254901960784314" d="M 616.5 332 L 618 336.5 L 617 336.5 L 616.5 332 Z " /><path fill="rgb(171,171,171)" stroke="rgb(171,171,171)" stroke-width="1" opacity="0.9254901960784314" d="M 557.5 334 L 558 336.5 L 557 336.5 L 557.5 334 Z " /><path fill="rgb(171,171,171)" stroke="rgb(171,171,171)" stroke-width="1" opacity="0.9254901960784314" d="M 556.5 338 L 557 404.5 L 556 404.5 L 556.5 338 Z " /><path fill="rgb(171,171,171)" stroke="rgb(171,171,171)" stroke-width="1" opacity="0.9254901960784314" d="M 618.5 338 L 619 404.5 L 618 404.5 L 618.5 338 Z " /><path fill="rgb(171,171,171)" stroke="rgb(171,171,171)" stroke-width="1" opacity="0.9254901960784314" d="M 70.5 341 L 73 341.5 L 70.5 342 L 70.5 341 Z " /><path fill="rgb(171,171,171)" stroke="rgb(171,171,171)" stroke-width="1" opacity="0.9254901960784314" d="M 64.5 342 L 69 342.5 Q 55.1 344.6 48 353.5 L 43 363.5 L 42.5 377 L 42 363.5 Q 45.4 352.9 53.5 347 L 64.5 342 Z " /><path fill="rgb(171,171,171)" stroke="rgb(171,171,171)" stroke-width="1" opacity="0.9254901960784314" d="M 74.5 342 L 82.5 343 L 94 350.5 L 101 362.5 L 101 365.5 L 100 365.5 Q 98 353.5 89.5 348 Q 84.5 343 74.5 343 L 74.5 342 Z " /><path fill="rgb(171,171,171)" stroke="rgb(171,171,171)" stroke-width="1" opacity="0.9254901960784314" d="M 674.5 342 L 688.5 342 Q 698.1 344.9 704 351.5 Q 712.3 358.7 711 375.5 Q 707.7 388.2 698.5 395 L 686.5 400 L 676.5 400 Q 663.1 397.4 657 387.5 Q 649.8 380.7 652 364.5 L 655.5 357 L 655 358.5 Q 651.4 365.4 653 377.5 Q 656.4 388.1 664.5 394 L 676.5 399 L 686.5 399 Q 698.1 396.6 704 388.5 Q 711.2 381.2 710 365.5 Q 707.1 352.9 697.5 347 Q 690.2 340.8 674.5 343 Q 664.9 345.9 659 352.5 L 656.5 356 L 658 353.5 L 663.5 347 L 674.5 342 Z " /><path fill="rgb(171,171,171)" stroke="rgb(171,171,171)" stroke-width="1" opacity="0.9254901960784314" d="M 101.5 367 L 102 373.5 Q 99.8 387.3 90.5 394 Q 82.9 401.4 66.5 400 Q 53.1 397.4 47 387.5 L 43 378.5 L 44 378.5 Q 46.8 388.8 54.5 394 L 66.5 399 L 77.5 399 Q 88 396.5 94 389.5 L 99 381.5 L 101.5 367 Z " /><path fill="rgb(171,171,171)" stroke="rgb(171,171,171)" stroke-width="1" opacity="0.9254901960784314" d="M 616.5 409 L 617 410.5 L 615.5 413 L 615 411.5 L 616.5 409 Z " /><path fill="rgb(171,171,171)" stroke="rgb(171,171,171)" stroke-width="1" opacity="0.9254901960784314" d="M 560.5 414 L 569.5 424 L 580.5 429 L 594.5 429 Q 606.5 426 612.5 417 L 605.5 425 L 594.5 430 L 580.5 430 Q 567.2 426.8 561 416.5 L 560.5 414 Z " /><path fill="rgb(171,171,171)" stroke="rgb(171,171,171)" stroke-width="1" opacity="0.9254901960784314" d="M 614.5 414 L 613.5 416 L 614.5 414 Z " /><path fill="rgb(171,171,171)" stroke="rgb(171,171,171)" stroke-width="1" opacity="0.9254901960784314" d="M 204.5 428 L 205 429.5 L 202.5 433 L 203 431.5 L 204.5 428 Z " /><path fill="rgb(171,171,171)" stroke="rgb(171,171,171)" stroke-width="1" opacity="0.9254901960784314" d="M 148.5 432 L 157.5 442 L 168.5 447 L 182.5 447 Q 195 443.5 201.5 434 L 198 438.5 Q 198.8 440.8 196.5 440 L 192.5 444 L 182.5 448 L 168.5 448 Q 155.7 444.3 149 434.5 L 148.5 432 Z " /><path fill="rgb(171,171,171)" stroke="rgb(171,171,171)" stroke-width="1" opacity="0.9254901960784314" d="M 460.5 458 L 470.5 470 L 482.5 475 L 493.5 475 Q 506 472.5 512.5 464 L 508.5 469 Q 500.3 477.3 482.5 476 L 475.5 474 L 466 468 L 460 459.5 L 460.5 458 Z " /><path fill="rgb(171,171,171)" stroke="rgb(171,171,171)" stroke-width="1" opacity="0.9254901960784314" d="M 514.5 461 L 513.5 463 L 514.5 461 Z " /><path fill="rgb(171,171,171)" stroke="rgb(171,171,171)" stroke-width="1" opacity="0.9254901960784314" d="M 311.5 477 L 312 479.5 L 311 479.5 L 311.5 477 Z " /><path fill="rgb(171,171,171)" stroke="rgb(171,171,171)" stroke-width="1" opacity="0.9254901960784314" d="M 310.5 481 L 311 482.5 L 307.5 488 L 308 486.5 L 310.5 481 Z " /><path fill="rgb(171,171,171)" stroke="rgb(171,171,171)" stroke-width="1" opacity="0.9254901960784314" d="M 254.5 486 L 263.5 496 L 274.5 501 L 288.5 501 Q 300.5 498 306.5 489 L 299.5 497 L 288.5 502 L 274.5 502 Q 261.7 498.3 255 488.5 L 254.5 486 Z " /><path fill="rgb(171,171,171)" stroke="rgb(171,171,171)" stroke-width="1" opacity="0.9254901960784314" d="M 356.5 568 L 357 571.5 L 356 571.5 L 356.5 568 Z " /><path fill="rgb(171,171,171)" stroke="rgb(171,171,171)" stroke-width="1" opacity="0.9254901960784314" d="M 417.5 571 L 418 573.5 L 416.5 576 L 416 574.5 L 417.5 571 Z " /><path fill="rgb(171,171,171)" stroke="rgb(171,171,171)" stroke-width="1" opacity="0.9254901960784314" d="M 359.5 578 L 362 581.5 L 360 580.5 L 359.5 578 Z " /><path fill="rgb(171,171,171)" stroke="rgb(171,171,171)" stroke-width="1" opacity="0.9254901960784314" d="M 414.5 579 L 414 580.5 L 408.5 588 L 398.5 594 L 384.5 596 L 371.5 592 L 362 583.5 L 367.5 588 Q 375 594.5 388.5 595 L 402.5 591 L 413 581.5 L 414.5 579 Z " /></svg>